<svg xmlns="http://www.w3.org/2000/svg" width="860" height="420" viewBox="0 0 860 420" font-family="Georgia, serif">
  <rect width="860" height="420" fill="#0B0A08"/>
  <text x="56" y="30" fill="#fff" font-size="18" font-weight="bold">The Prestige Test — headline sway distribution</text>
  <text x="56" y="48" fill="#8a8578" font-size="12">SYNTHETIC DEMO DATA (n=300, seeded) — real cohort chart replaces this · mean +19.1%</text>
  <rect x="57.0" y="340.0" width="35.4" height="0.0" fill="hsl(42 80% 62%)" opacity="0.55"/>
  <rect x="94.4" y="340.0" width="35.4" height="0.0" fill="hsl(42 80% 62%)" opacity="0.55"/>
  <rect x="131.8" y="340.0" width="35.4" height="0.0" fill="hsl(42 80% 62%)" opacity="0.55"/>
  <rect x="169.2" y="340.0" width="35.4" height="0.0" fill="hsl(42 80% 62%)" opacity="0.55"/>
  <rect x="206.6" y="340.0" width="35.4" height="0.0" fill="hsl(42 80% 62%)" opacity="0.55"/>
  <rect x="244.0" y="340.0" width="35.4" height="0.0" fill="hsl(42 80% 62%)" opacity="0.55"/>
  <rect x="281.4" y="340.0" width="35.4" height="0.0" fill="hsl(42 80% 62%)" opacity="0.55"/>
  <rect x="318.8" y="336.1" width="35.4" height="3.9" fill="hsl(42 80% 62%)" opacity="0.55"/>
  <rect x="356.2" y="328.3" width="35.4" height="11.7" fill="hsl(42 80% 62%)" opacity="0.55"/>
  <rect x="393.6" y="242.7" width="35.4" height="97.3" fill="hsl(42 80% 62%)" opacity="0.55"/>
  <rect x="431.0" y="118.2" width="35.4" height="221.8" fill="hsl(42 80% 62%)" opacity="0.9"/>
  <rect x="468.4" y="56.0" width="35.4" height="284.0" fill="hsl(42 80% 62%)" opacity="0.9"/>
  <rect x="505.8" y="83.2" width="35.4" height="256.8" fill="hsl(42 80% 62%)" opacity="0.9"/>
  <rect x="543.2" y="164.9" width="35.4" height="175.1" fill="hsl(42 80% 62%)" opacity="0.9"/>
  <rect x="580.6" y="254.4" width="35.4" height="85.6" fill="hsl(42 80% 62%)" opacity="0.9"/>
  <rect x="618.0" y="312.8" width="35.4" height="27.2" fill="hsl(42 80% 62%)" opacity="0.9"/>
  <rect x="655.4" y="336.1" width="35.4" height="3.9" fill="hsl(42 80% 62%)" opacity="0.9"/>
  <rect x="692.8" y="340.0" width="35.4" height="0.0" fill="hsl(42 80% 62%)" opacity="0.9"/>
  <rect x="730.2" y="340.0" width="35.4" height="0.0" fill="hsl(42 80% 62%)" opacity="0.9"/>
  <rect x="767.6" y="340.0" width="35.4" height="0.0" fill="hsl(42 80% 62%)" opacity="0.9"/>
  <line x1="430.0" y1="56" x2="430.0" y2="340" stroke="#8a8578" stroke-dasharray="3 3"/>
  <line x1="501.3" y1="56" x2="501.3" y2="340" stroke="#fff" stroke-dasharray="5 4"/>
  <text x="501.3" y="50" fill="#fff" font-size="11" text-anchor="middle">mean</text>
  <text x="56.0" y="358" fill="#8a8578" font-size="12" text-anchor="middle">-100%</text>
  <text x="243.0" y="358" fill="#8a8578" font-size="12" text-anchor="middle">-50%</text>
  <text x="430.0" y="358" fill="#8a8578" font-size="12" text-anchor="middle">0%</text>
  <text x="617.0" y="358" fill="#8a8578" font-size="12" text-anchor="middle">+50%</text>
  <text x="804.0" y="358" fill="#8a8578" font-size="12" text-anchor="middle">+100%</text>
  <text x="430" y="210" fill="#ffffff" opacity="0.14" font-size="46" font-weight="bold" text-anchor="middle" transform="rotate(-14 430 210)">SYNTHETIC DEMO DATA</text>
</svg>
